<svg xmlns="http://www.w3.org/2000/svg" width="800" height="600" viewBox="0 0 800 600">
  <rect width="800" height="600" fill="#F3F4F6"/>
  <rect x="100" y="100" width="600" height="400" rx="10" fill="white" stroke="#E5E7EB" stroke-width="2"/>
  
  <!-- Navigation Bar -->
  <rect x="100" y="100" width="600" height="60" rx="10" fill="#4F46E5"/>
  <text x="140" y="140" font-family="Arial" font-size="24" font-weight="bold" fill="white">Directory Example</text>
  <rect x="500" y="120" width="80" height="20" rx="10" fill="white" opacity="0.3"/>
  <rect x="600" y="120" width="80" height="20" rx="10" fill="white" opacity="0.3"/>
  
  <!-- Search Bar -->
  <rect x="150" y="180" width="500" height="40" rx="5" fill="#F9FAFB" stroke="#E5E7EB" stroke-width="2"/>
  <circle cx="175" cy="200" r="10" fill="#4F46E5" opacity="0.5"/>
  <text x="200" y="205" font-family="Arial" font-size="14" fill="#9CA3AF">Search directory...</text>
  
  <!-- Listing Cards -->
  <rect x="150" y="240" width="200" height="100" rx="5" fill="white" stroke="#E5E7EB" stroke-width="2"/>
  <rect x="170" y="255" width="100" height="15" rx="2" fill="#4F46E5" opacity="0.7"/>
  <rect x="170" y="280" width="160" height="10" rx="2" fill="#4F46E5" opacity="0.3"/>
  <rect x="170" y="300" width="160" height="10" rx="2" fill="#4F46E5" opacity="0.3"/>
  <rect x="170" y="320" width="80" height="10" rx="2" fill="#4F46E5" opacity="0.3"/>
  
  <rect x="370" y="240" width="200" height="100" rx="5" fill="white" stroke="#E5E7EB" stroke-width="2"/>
  <rect x="390" y="255" width="100" height="15" rx="2" fill="#4F46E5" opacity="0.7"/>
  <rect x="390" y="280" width="160" height="10" rx="2" fill="#4F46E5" opacity="0.3"/>
  <rect x="390" y="300" width="160" height="10" rx="2" fill="#4F46E5" opacity="0.3"/>
  <rect x="390" y="320" width="80" height="10" rx="2" fill="#4F46E5" opacity="0.3"/>
  
  <rect x="150" y="360" width="200" height="100" rx="5" fill="white" stroke="#E5E7EB" stroke-width="2"/>
  <rect x="170" y="375" width="100" height="15" rx="2" fill="#4F46E5" opacity="0.7"/>
  <rect x="170" y="400" width="160" height="10" rx="2" fill="#4F46E5" opacity="0.3"/>
  <rect x="170" y="420" width="160" height="10" rx="2" fill="#4F46E5" opacity="0.3"/>
  <rect x="170" y="440" width="80" height="10" rx="2" fill="#4F46E5" opacity="0.3"/>
  
  <rect x="370" y="360" width="200" height="100" rx="5" fill="white" stroke="#E5E7EB" stroke-width="2"/>
  <rect x="390" y="375" width="100" height="15" rx="2" fill="#4F46E5" opacity="0.7"/>
  <rect x="390" y="400" width="160" height="10" rx="2" fill="#4F46E5" opacity="0.3"/>
  <rect x="390" y="420" width="160" height="10" rx="2" fill="#4F46E5" opacity="0.3"/>
  <rect x="390" y="440" width="80" height="10" rx="2" fill="#4F46E5" opacity="0.3"/>
</svg>